<?xml version="1.0" standalone="no"?>
<!DOCTYPE svg PUBLIC "-//W3C//DTD SVG 1.1//EN" "http://www.w3.org/Graphics/SVG/1.1/DTD/svg11.dtd" >
<svg xmlns="http://www.w3.org/2000/svg">
<metadata>Generated by IcoMoon</metadata>
<defs>
<font id="fonticon" horiz-adv-x="1024">
<font-face units-per-em="1024" ascent="960" descent="-64" />
<missing-glyph horiz-adv-x="1024" />
<glyph unicode="&#x20;" horiz-adv-x="512" d="" />
<glyph unicode="&#xe900;" glyph-name="bell" horiz-adv-x="785" d="M768.717 171.418c-2.901 1.911-24.815 17.271-46.763 63.727-40.311 85.333-48.811 205.483-48.811 291.294v1.092c-0.444 113.391-68.335 211.149-165.513 255.010v67.072c0 60.894-49.425 110.387-110.182 110.387h-9.148c-60.757 0-110.182-49.493-110.182-110.387v-67.072c-97.485-43.998-165.547-142.234-165.547-256.102 0-85.811-8.431-205.995-48.742-291.294-21.982-46.455-43.895-61.815-46.797-63.727-12.288-5.666-18.33-18.773-15.497-32.085 2.833-13.414 15.394-22.699 29.116-22.699h212.787c1.161-81.579 67.755-147.524 149.436-147.524 81.715 0 148.275 65.98 149.47 147.524h212.787c13.687 0 26.249 9.284 29.116 22.699 2.799 13.312-3.243 26.419-15.531 32.085zM336.213 849.647c0 28.774 23.381 52.224 52.122 52.224h9.148c28.74 0 52.156-23.45 52.156-52.224v-48.265c-18.33 3.789-37.308 5.803-56.73 5.803-19.456 0-38.4-2.014-56.695-5.803v48.23zM392.909 27.238c-49.698 0-90.214 39.936-91.375 89.429h182.784c-1.195-49.493-41.711-89.429-91.409-89.429zM509.815 174.797h-413.013c5.052 7.851 10.172 16.725 15.258 26.692 38.912 76.732 58.607 186.061 58.607 324.949 0 122.743 99.703 222.549 222.208 222.549 122.539 0 222.242-99.806 222.242-222.652v-1.058c0.137-138.342 19.866-247.262 58.675-323.789 5.052-10.001 10.172-18.876 15.189-26.692h-179.2z" />
<glyph unicode="&#xe901;" glyph-name="calendar" horiz-adv-x="945" d="M917.977 893.204h-116.815v50.097c0 9.216-7.483 16.699-16.699 16.699h-116.815c-9.295 0-16.699-7.483-16.699-16.699v-50.097h-367.222v50.097c0 9.216-7.483 16.699-16.699 16.699h-116.815c-9.216 0-16.699-7.483-16.699-16.699v-50.097h-116.815c-9.216 0-16.699-7.404-16.699-16.62v-901.356c0-9.216 7.483-16.699 16.699-16.699h901.278c9.216 0 16.699 7.483 16.699 16.699v901.278c0 9.295-7.483 16.699-16.699 16.699zM684.347 926.602h83.417v-100.116h-83.495v100.116zM166.833 926.602h83.495v-100.116h-83.495v100.116zM33.477 859.963h100.116v-50.097c0-9.216 7.483-16.699 16.699-16.699h116.736c9.216 0 16.699 7.483 16.699 16.699v50.097h367.222v-50.097c0-9.216 7.404-16.699 16.699-16.699h116.815c9.216 0 16.699 7.483 16.699 16.699v50.097h100.116v-150.213h-867.879v150.134zM33.477-7.995v684.268h867.879v-684.347h-867.958zM600.852 576.079h-450.639v-483.958h634.25v483.958h-183.611zM484.037 542.759h116.815v-116.894h-116.815v116.894zM600.852 275.732h-116.815v116.736h116.815v-116.894zM333.824 392.546h116.736v-116.894h-116.736v116.894zM333.824 542.759h116.736v-116.894h-116.736v116.894zM183.611 542.759h116.815v-116.894h-116.815v116.894zM183.611 392.546h116.815v-116.894h-116.815v116.894zM300.426 125.519h-116.815v116.736h116.815v-116.894zM450.639 125.519h-116.815v116.736h116.736v-116.894zM600.852 125.519h-116.815v116.736h116.815v-116.894zM751.065 125.519h-116.815v116.736h116.815v-116.894zM751.065 275.653h-116.815v116.894h116.815v-116.894zM751.065 542.681v-116.736h-116.815v116.815h116.815z" />
<glyph unicode="&#xe902;" glyph-name="envelope" horiz-adv-x="1365" d="M1319.049 910.302c-1.707 1.707-1.707 3.413-3.413 3.413-29.082 29.15-68.471 46.285-113.050 46.285h-1039.838c-89.088 0-162.748-73.66-162.748-162.748v-685.261c0-89.020 73.66-162.748 162.748-162.748h1039.838c89.088 0 162.748 73.728 162.748 162.748v685.261c-1.707 42.803-18.842 82.261-46.285 113.050zM162.748 874.325h1041.476l-479.642-337.442c-25.737-18.842-61.713-18.842-87.381 0l-488.175 335.735c3.413 1.707 8.602 1.707 13.653 1.707zM1277.952 111.991c0-42.803-34.27-77.073-77.073-77.073h-1038.131c-42.803 0-77.141 34.27-77.141 77.141v685.124c0 5.12 0 10.24 1.775 13.653l501.897-344.269c27.443-18.842 60.006-29.15 92.501-29.15 32.563 0 65.126 10.24 94.208 29.15l500.258 352.939c1.707-6.895 3.413-15.497 3.413-22.323v-685.261h-1.707z" />
<glyph unicode="&#xe903;" glyph-name="exit" horiz-adv-x="819" d="M245.248 693.146l-245.248-245.299 245.248-245.248 51.712 51.712-156.979 156.979h460.288v73.114h-460.288l157.030 157.030-51.712 51.712zM146.278 959.846v-73.165h585.165v-877.722h-585.165v-73.114h658.278v1024h-658.278z" />
<glyph unicode="&#xe904;" glyph-name="farm" horiz-adv-x="1170" d="M1136.494 512.366l-206.848 330.825c-2.341 3.803-5.998 6.583-10.24 7.899l-344.21 107.593c-3.657 1.17-7.461 1.17-11.118 0l-344.21-107.52c-4.242-1.39-7.899-4.169-10.24-7.973l-206.775-330.825c-2.633-4.169-3.511-9.289-2.341-14.043 1.097-4.827 4.023-8.997 8.265-11.703l67.438-42.13c8.777-5.413 20.261-2.779 25.746 5.925l11.337 18.286v-465.993h-40.887c-10.386 0-18.725-8.338-18.725-18.651s8.338-18.651 18.651-18.651h994.743c10.313 0 18.651 8.338 18.651 18.651 0 10.24-8.338 18.651-18.651 18.651h-40.96v465.92l11.337-18.213c3.511-5.632 9.582-8.777 15.799-8.777 3.365 0 6.802 0.951 9.874 2.926l67.511 42.13c4.169 2.633 7.168 6.802 8.265 11.63 1.097 4.754 0.293 9.874-2.341 14.043zM606.135 323.511h185.71l-92.891-128.585-92.818 128.585zM675.986 163.109l-87.698-121.417v242.834l87.698-121.417zM550.985 284.526v-242.834l-87.625 121.417 87.625 121.417zM440.32 194.926l-92.818 128.585h185.71l-92.891-128.585zM533.211 2.706h-185.783l92.891 128.512 92.818-128.512zM698.953 131.218l92.891-128.512h-185.71l92.891 128.512zM721.993 163.109l87.625 121.417v-242.834l-87.625 121.417zM289.865 360.814v42.277h559.543v-42.277h-559.543zM417.353 163.109l-87.698-121.417v242.834l87.698-121.417zM988.672 2.706h-141.678v320.805h21.211c10.24 0 18.578 8.338 18.578 18.651v79.506c0 10.24-8.338 18.651-18.651 18.651h-596.846c-10.24 0-18.651-8.338-18.651-18.651v-79.579c0-10.313 8.338-18.651 18.651-18.651h21.211v-320.805h-141.97v525.678l138.825 222.062 280.21 87.625 280.283-87.625 138.752-222.062v-525.605zM1059.109 486.034l-181.248 290.011c-2.341 3.73-5.998 6.583-10.24 7.899l-292.425 91.429c-1.755 0.512-3.657 0.731-5.559 0.731-1.829 0-3.73-0.219-5.559-0.731l-292.352-91.429c-4.242-1.317-7.899-4.169-10.24-7.899l-181.321-290.011-35.84 22.382 193.243 309.175 332.069 103.79 332.069-103.863 193.243-309.102-35.84-22.382zM669.111 738.816h-198.949c-10.24 0-18.651-8.338-18.651-18.651v-199.022c0-10.313 8.338-18.651 18.651-18.651h198.949c10.313 0 18.651 8.338 18.651 18.651v198.949c0 10.24-8.338 18.651-18.651 18.651zM488.814 675.182l54.491-54.491-54.491-54.491v108.983zM515.145 701.513h108.983l-54.491-54.491-54.418 54.491zM569.71 594.286l54.491-54.418h-108.983l54.491 54.418zM596.041 620.617l54.491 54.491v-108.91l-54.418 54.491z" />
<glyph unicode="&#xe905;" glyph-name="filter" horiz-adv-x="970" d="M928.337 960h-886.568c-15.629 0-29.912-8.947-37.080-23.283-7.276-14.552-5.982-32.013 3.234-45.272l325.147-471.633c11.803-16.384 18.163-36.271 18.216-56.697v-384.162c-0.054-11.318 4.312-22.259 12.072-30.343s18.324-12.611 29.427-12.611c5.605 0 11.156 1.132 16.33 3.395l182.488 71.68c16.384 5.12 27.217 21.019 27.217 40.152v311.889c0 20.426 6.467 40.313 18.216 56.697l0.323 0.485 324.824 471.148c9.216 13.258 10.509 30.72 3.234 45.272-7.114 14.336-21.45 23.283-37.080 23.283zM596.345 450.587c-18.163-25.331-27.971-55.997-28.025-87.471v-305.583l-166.535-65.428v371.011c-0.054 31.475-9.863 62.141-28.025 87.471l-315.284 457.459h853.154l-315.284-457.459z" />
<glyph unicode="&#xe906;" glyph-name="gear" d="M909.312 152.883c-5.376 1.536-14.95 3.482-24.064 6.758-43.674 15.462-89.907-16.998-88.73-63.13 0.205-8.192 2.355-16.742 5.222-24.576 12.646-34.099 1.126-66.918-30.72-84.89-36.864-20.838-75.776-36.864-116.582-48.282-34.611-9.728-66.509 5.632-81.357 39.014-16.538 37.222-59.238 51.712-93.952 31.846-13.312-7.629-22.426-18.944-28.518-33.024-12.032-27.546-38.298-43.93-67.328-40.243-14.080 1.792-27.853 6.656-41.472 11.162-30.618 10.086-59.904 23.398-87.962 39.168-32.563 18.227-44.032 50.893-30.976 85.862 10.138 26.931 5.53 51.61-14.95 71.885-20.070 19.814-44.493 24.064-70.81 14.336-35.635-13.21-67.84-1.843-86.374 31.181-20.48 36.506-36.25 75.059-47.718 115.354-9.728 34.253 5.478 66.816 38.144 81.203 20.838 9.114 34.662 24.269 39.731 46.49 7.322 31.898-8.294 62.362-38.605 75.674-19.968 8.755-33.638 22.938-39.782 44.083-3.379 11.725-3.277 23.398-0.102 35.123 11.366 41.574 27.648 81.101 48.691 118.63 18.022 32.102 50.995 43.878 85.402 30.72 40.653-15.616 82.842 7.834 90.47 50.432 2.202 12.134 0.512 24.064-3.994 35.584-13.517 34.816-1.69 67.533 30.925 85.811 37.12 20.941 76.288 36.915 117.248 48.333 32.973 9.216 65.434-6.451 79.462-38.246 9.984-22.579 26.522-36.966 51.046-40.806 31.232-4.864 58.624 10.547 71.373 39.68 9.37 21.299 24.73 35.84 47.718 40.038 10.394 1.894 22.067 1.638 32.307-1.024 41.472-10.752 80.691-27.29 117.965-48.333 31.795-17.971 43.622-50.893 30.515-84.89-16.486-42.957 9.677-86.63 55.45-91.085 9.626-0.922 20.224 1.024 29.389 4.25 37.069 13.21 68.659 2.048 87.757-32.256 19.866-35.584 35.226-73.062 46.49-112.23 10.547-36.608-3.994-68.198-38.758-83.763-42.086-18.944-53.965-71.578-23.040-104.96 6.451-6.963 15.053-12.698 23.757-16.794 33.638-15.718 48.435-47.104 38.195-83.046-11.674-40.96-27.75-80.077-49.050-116.992-12.8-22.221-32.512-33.075-62.413-34.048zM957.952 570.931c-9.779 35.891-23.91 69.837-41.83 102.298-2.253 4.096-4.71 2.15-7.424 1.178-24.883-8.96-50.278-10.957-76.083-4.813-77.722 18.483-121.19 98.816-94.054 174.029 1.946 5.274 0.973 7.629-3.942 9.83-19.712 8.909-39.117 18.637-59.034 26.982-13.107 5.53-26.982 9.216-40.141 13.619-25.446-52.429-65.382-82.381-123.238-82.432-58.112 0-98.202 30.106-123.187 82.074-36.966-10.138-71.936-24.627-105.062-43.52 18.944-54.477 11.981-104.141-29.184-145.203-41.114-40.96-90.726-48.128-144.947-28.928-18.944-33.485-33.536-68.403-43.52-105.062 51.712-24.934 81.613-64.512 81.971-122.163 0.358-58.47-29.696-98.765-81.92-124.058 10.086-36.966 24.627-72.090 43.52-105.114 52.634 18.432 100.864 12.493 141.517-25.6 43.93-41.165 51.968-92.006 32.614-148.48 33.28-18.842 68.301-33.638 105.062-43.418 25.344 52.122 65.28 81.92 123.187 81.92 58.163 0 98.099-30.31 123.034-82.022 36.966 10.24 71.936 24.678 105.062 43.622-19.149 54.477-11.93 103.885 28.877 144.794 40.96 41.216 90.624 48.179 145.203 29.235 18.944 33.28 33.536 68.352 43.52 105.062-52.634 25.6-82.534 65.946-82.022 124.416 0.512 57.293 30.31 96.768 82.022 121.754zM512.205 679.526c29.133-0.358 57.139-6.042 84.173-16.589 18.125-7.066 26.675-25.395 20.173-42.803-6.554-17.613-25.344-25.958-43.827-18.739-87.552 34.099-181.453-10.086-214.221-92.877-39.424-99.533 25.958-210.893 131.84-224.461 93.338-11.981 177.562 55.142 186.317 148.736 2.406 26.112-1.69 51.354-11.059 75.878-6.861 17.766 0.614 35.789 17.101 43.008 17.254 7.526 36.659-0.41 43.981-18.534 14.643-36.25 20.48-73.984 14.797-112.691-13.926-94.874-66.202-160.205-156.518-191.59-135.066-46.95-280.678 43.315-301.414 184.832-18.637 126.874 68.915 244.941 195.226 263.014 11.059 1.536 22.272 1.894 33.434 2.816z" />
<glyph unicode="&#xe907;" glyph-name="grid" d="M796.416 391.168c125.696 0 227.584-101.888 227.584-227.584s-101.888-227.584-227.584-227.584-227.584 101.888-227.584 227.584 101.888 227.584 227.584 227.584zM227.584 391.168c125.696 0 227.584-101.888 227.584-227.584s-101.888-227.584-227.584-227.584-227.584 101.888-227.584 227.584 101.888 227.584 227.584 227.584zM796.416 960c125.696 0 227.584-101.888 227.584-227.584s-101.888-227.584-227.584-227.584-227.584 101.888-227.584 227.584 101.888 227.584 227.584 227.584zM227.584 960c125.696 0 227.584-101.888 227.584-227.584s-101.888-227.584-227.584-227.584-227.584 101.888-227.584 227.584 101.888 227.584 227.584 227.584z" />
<glyph unicode="&#xe908;" glyph-name="home" horiz-adv-x="1075" d="M533.658 960c-1.331 0-2.611 0-3.942-0.102h-0.307c-11.52-0.666-22.221-6.195-29.44-15.206l-486.451-437.811c-10.854-9.779-15.667-24.627-12.595-38.912 3.072-14.336 13.466-25.958 27.392-30.464s29.184-1.28 40.090 8.55l13.517 12.134v-358.4c0-30.618-0.154-54.17 2.202-75.418 2.406-21.248 7.936-43.52 25.19-60.877 17.306-17.306 39.629-22.835 60.877-25.242s44.8-2.253 75.469-2.253h40.96c30.72 0 54.272-0.154 75.52 2.253s43.52 7.936 60.826 25.242c17.306 17.306 22.835 39.629 25.19 60.877 2.406 21.248 2.253 44.8 2.253 75.418v81.92c0 30.566 0.205 52.992 1.69 66.253 0.717 6.656 1.638 10.138 2.15 11.776 1.587 0.512 5.12 1.382 11.776 2.15 13.261 1.485 35.635 1.638 66.253 1.638s53.043-0.154 66.304-1.638c6.656-0.768 10.138-1.69 11.776-2.202 0.512-1.536 1.382-5.12 2.15-11.776 1.485-13.21 1.638-35.635 1.638-66.253v-81.92c0-30.618-0.154-54.221 2.253-75.469s7.987-43.52 25.293-60.826c17.306-17.306 39.578-22.835 60.826-25.19 21.248-2.406 44.8-2.253 75.418-2.253h40.96c30.669 0 54.272-0.154 75.469 2.253 21.248 2.406 43.571 7.936 60.877 25.242s22.784 39.629 25.19 60.877c2.355 21.248 2.253 44.749 2.253 75.418v358.4l13.466-12.134c16.845-15.155 42.752-13.824 57.856 2.97 15.155 16.794 13.824 42.701-2.97 57.856l-486.298 437.76c-7.578 9.421-18.944 15.053-31.027 15.36zM532.275 863.488l341.555-307.354c17.152-15.514 26.931-37.53 26.931-60.672v-395.674c0-30.618-0.154-53.043-1.69-66.304-0.717-6.656-1.638-10.138-2.15-11.776-1.587-0.512-5.12-1.382-11.776-2.15-13.261-1.485-35.635-1.69-66.253-1.69h-40.96c-30.566 0-52.992 0.205-66.304 1.69-6.656 0.768-10.138 1.69-11.776 2.15-0.512 1.638-1.382 5.12-2.099 11.776-1.536 13.312-1.69 35.686-1.69 66.304v81.92c0 30.566 0.154 54.118-2.253 75.366-2.355 21.248-7.885 43.52-25.19 60.826-17.254 17.306-39.578 22.886-60.826 25.293s-44.851 2.253-75.52 2.253c-30.669 0-54.272 0.154-75.469-2.253-21.248-2.406-43.571-7.987-60.877-25.293-17.254-17.306-22.784-39.578-25.19-60.826-2.355-21.248-2.253-44.8-2.253-75.418v-81.92c0-30.566-0.154-52.992-1.638-66.253-0.768-6.656-1.69-10.138-2.15-11.776-1.638-0.512-5.12-1.382-11.776-2.15-13.312-1.485-35.686-1.69-66.304-1.69h-40.96c-30.618 0-52.992 0.205-66.253 1.69-6.656 0.768-10.138 1.638-11.776 2.15-0.512 1.638-1.382 5.12-2.15 11.776-1.536 13.312-1.69 35.686-1.69 66.304v395.674c0 23.194 9.882 45.312 27.136 60.826l341.299 307.2z" />
<glyph unicode="&#xe909;" glyph-name="list" horiz-adv-x="2176" d="M920.52 99.775h-471.886c-50.943 0-92.215 41.281-92.215 92.031v515.53c0.088 50.672 41.36 91.952 92.127 91.952h471.965c50.847 0 92.031-41.281 92.031-92.031v-515.53c0-50.768-41.281-91.952-92.031-91.952zM540.588 283.856h287.892v331.352h-287.892v-331.352zM1731.059 587.281h-465.908c-50.847 0-92.031 41.281-92.031 92.031 0 50.847 41.281 92.031 92.031 92.031h465.908c50.847 0 92.031-41.281 92.031-92.031 0-50.847-41.281-92.031-92.031-92.031zM1550.049 127.701h-314.76c-34.253 0-62.179 41.281-62.179 92.031s27.848 92.031 62.179 92.031h314.76c34.332 0 62.179-41.281 62.179-92.031 0-50.847-27.848-92.031-62.179-92.031z" />
<glyph unicode="&#xe90a;" glyph-name="user" horiz-adv-x="973" d="M474.675 455.834c139.162 0 252.006 112.845 252.006 252.006s-112.845 252.006-252.006 252.006c-139.162 0-252.006-112.845-252.006-252.006 0.205-139.11 112.896-251.802 252.006-252.006zM139.059 271.514c135.731 135.68 339.917 176.333 517.274 102.861s293.018-246.528 293.018-438.528h-75.162c0 220.314-179.2 399.514-399.514 399.514s-399.514-179.2-399.514-399.514h-75.162c-0.358 125.952 49.715 246.784 139.059 335.616zM474.675 884.787c97.69 0 176.896-79.206 176.896-176.896s-79.155-176.896-176.845-176.896c-97.69 0-176.896 79.155-176.947 176.845 0.154 97.638 79.258 176.742 176.896 176.845v0.102z" />
<glyph unicode="&#xe90b;" glyph-name="widget" d="M464.026 576h-464.026v384h464.026v-384zM64 640h336.026v256h-336.026v-256zM464.026-64h-464.026v544h464.026v-544zM64 0h336.026v416h-336.026v-416zM1024 416h-464.026v544h464.026v-544zM623.974 480h336.026v416h-336.026v-416zM1024-64h-464.026v384h464.026v-384zM623.974 0h336.026v256h-336.026v-256z" />
<glyph unicode="&#xe90c;" glyph-name="printer" d="M860.554 705.969h-27.569v106.338c0 81.447-66.245 147.692-147.692 147.692h-362.338c-81.447 0-147.692-66.245-147.692-147.692v-106.338h-27.569c-81.447 0-147.692-66.245-147.692-147.692v-236.308c0-81.447 66.245-147.692 147.692-147.692h27.569v-133.908c0-48.837 39.778-88.615 88.615-88.615h480.492c48.837 0 88.615 39.778 88.615 88.615v133.908h27.569c81.447 0 147.692 66.245 147.692 147.692v236.308c0 81.447-66.245 147.692-147.692 147.692zM234.338 812.308c0 48.837 39.778 88.615 88.615 88.615h362.338c48.837 0 88.615-39.778 88.615-88.615v-106.338h-539.569v106.338zM773.908 40.369c0-16.305-13.233-29.538-29.538-29.538h-480.492c-16.305 0-29.538 13.233-29.538 29.538v291.446h539.569v-291.446zM949.169 321.969c0-48.837-39.778-88.615-88.615-88.615h-27.569v98.462h17.723c16.305 0 29.538 13.233 29.538 29.538s-13.233 29.538-29.538 29.538h-693.169c-16.305 0-29.538-13.233-29.538-29.538s13.233-29.538 29.538-29.538h17.723v-98.462h-27.569c-48.837 0-88.615 39.778-88.615 88.615v236.308c0 48.837 39.778 88.615 88.615 88.615h712.862c48.837 0 88.615-39.778 88.615-88.615v-236.308zM582.892 264.862h-157.538c-16.305 0-29.538-13.233-29.538-29.538s13.233-29.538 29.538-29.538h157.538c16.305 0 29.538 13.233 29.538 29.538s-13.233 29.538-29.538 29.538zM582.892 138.831h-157.538c-16.305 0-29.538-13.233-29.538-29.538s13.233-29.538 29.538-29.538h157.538c16.305 0 29.538 13.233 29.538 29.538s-13.233 29.538-29.538 29.538zM252.062 579.938h-94.523c-16.305 0-29.538-13.233-29.538-29.538s13.233-29.538 29.538-29.538h94.523c16.305 0 29.538 13.233 29.538 29.538s-13.233 29.538-29.538 29.538z" />
<glyph unicode="&#xe90d;" glyph-name="paper-pin" horiz-adv-x="884" d="M664.509 330.315c-10.876 40.457-31.568 67.451-61.971 80.987l103.14 231.657c15.988-7.118 32.363-7.531 49.126-1.237 16.805 6.275 28.67 17.245 35.636 32.893 7.005 15.733 7.219 31.891 0.618 48.535-6.539 16.668-17.845 28.58-33.791 35.68l-294.928 131.311c-15.988 7.118-32.363 7.531-49.168 1.256-16.762-6.293-28.651-17.203-35.655-32.936-6.967-15.648-7.157-31.867-0.599-48.493 6.582-16.687 17.845-28.58 33.834-35.699l-103.14-231.657c-30.445 13.555-64.328 10.808-101.652-8.138-37.343-18.988-64.238-47.010-80.765-84.131-3.502-7.866-3.621-15.915-0.37-24.291 3.331-8.31 8.951-14.226 16.945-17.785l186.201-82.902-62.712-235.034c-2.104-8.846 1.011-15.124 9.303-18.815l0.468-0.208c3.657-1.628 7.371-1.753 11.144-0.376 3.749 1.439 6.789 3.805 8.993 7.154l120.781 208.11 197.724-88.033c7.994-3.559 16.151-3.777 24.575-0.649 8.362 3.104 14.325 8.601 17.828 16.468 16.508 37.079 19.313 75.877 8.436 116.334zM417.227 511.080c-1.874-4.21-4.768-7.048-8.744-8.539s-8.111-1.28-12.448 0.651c-4.252 1.893-7.218 4.844-8.77 8.796-1.571 3.909-1.379 8.002 0.495 12.212l90.304 202.827c1.874 4.21 4.768 7.048 8.744 8.539s8.153 1.261 12.448-0.651c4.252-1.893 7.218-4.844 8.77-8.796 1.571-3.909 1.379-8.002-0.495-12.212l-90.304-202.827z" />
<glyph unicode="&#xe90e;" glyph-name="clock" d="M686.912 329.344l-153.6 109.952v224c0 22.528-19.072 40.704-42.624 40.704-23.616 0-42.688-18.176-42.688-40.704v-244.416c0-12.8 6.336-24.896 17.088-32.576l170.624-122.176c7.68-5.504 16.64-8.128 25.6-8.128 12.992 0 25.792 5.568 34.112 16.32 14.208 17.92 10.368 43.52-8.512 56.96zM512 960c-282.304 0-512-229.696-512-512s229.696-512 512-512 512 229.696 512 512-229.696 512-512 512zM512 15.36c-238.528 0-432.64 194.112-432.64 432.64s194.048 432.64 432.64 432.64c238.592 0 432.64-194.112 432.64-432.64s-194.048-432.64-432.64-432.64z" />
<glyph unicode="&#xe90f;" glyph-name="comment" horiz-adv-x="1097" d="M908.434 958.903h-763.611c-79.872 0-144.823-64.951-144.823-144.823v-467.383c0-79.653 64.658-144.457 144.311-144.75v-212.114l304.713 212.114h459.41c79.872 0 144.823 64.951 144.823 144.823v467.383c0 79.726-64.951 144.75-144.823 144.75zM771.365 415.817h-489.472v61.659h489.472v-61.659zM771.365 547.474h-489.472v61.659h489.472v-61.659zM771.365 679.131h-489.472v61.659h489.472v-61.659z" />
<glyph unicode="&#xe910;" glyph-name="plus-circle-thin" d="M512 960v0c-282.77 0-512-229.23-512-512v0c0-282.77 229.23-512 512-512s512 229.23 512 512c0 282.77-229.23 512-512 512zM480 704h64v-512h-64v512zM544 480h256v-64h-256v64zM224 480h256v-64h-256v64z" />
<glyph unicode="&#xe911;" glyph-name="exchange" d="M939.344 305.421c0-59.054-47.88-106.934-106.934-106.934h-698.134l140.795 140.795-50.404 50.404-201.641-201.641c-13.915-13.924-13.915-36.48 0-50.404l201.641-201.641 50.404 50.404-140.795 140.795h698.134c98.38 0.122 178.102 79.844 178.223 178.223v142.579h-71.289zM83.872 590.578c0 59.063 47.871 106.934 106.934 106.934h698.134l-140.795-140.795 50.404-50.404 201.641 201.641c13.915 13.924 13.915 36.48 0 50.404l-201.641 201.641-50.404-50.404 140.795-140.795h-698.134c-98.38-0.113-178.11-79.844-178.223-178.223v-142.579h71.289z" />
<glyph unicode="&#xe912;" glyph-name="progress" d="M118.613 329.088c3.669-3.669 8.491-5.504 13.269-5.504 4.821 0 9.643 1.835 13.269 5.504l284.16 284.16 172.032-172.032c3.541-3.541 8.32-5.547 13.269-5.547 4.992 0 9.771 2.005 13.269 5.547l99.797 99.755c7.339 7.339 7.339 19.2 0 26.581-7.339 7.296-19.2 7.296-26.539 0l-86.528-86.528-172.032 172.032c-3.499 3.541-8.277 5.504-13.227 5.504-4.992 0-9.813-1.963-13.312-5.504l-284.16-284.16-43.904 43.947 341.333 341.333 172.032-172.075c3.541-3.499 8.32-5.461 13.269-5.461 4.992 0 9.771 1.963 13.269 5.461l226.731 226.731c7.339 7.339 7.339 19.2 0 26.539l-6.912 6.955 110.848 29.696-29.696-110.848-3.755 3.755c-3.541 3.541-8.32 5.504-13.312 5.504-4.949 0-9.728-1.963-13.227-5.504l-91.221-91.179c-7.339-7.339-7.339-19.2 0-26.581 7.339-7.296 19.2-7.296 26.539 0l77.952 77.952 13.44-13.483c4.779-4.736 11.648-6.613 18.133-4.864 6.485 1.707 11.52 6.827 13.269 13.269l46.549 173.653c1.707 6.485-0.128 13.397-4.864 18.133-4.693 4.736-11.648 6.613-18.133 4.864l-173.653-46.507c-6.485-1.749-11.52-6.827-13.227-13.312-1.792-6.485 0.085-13.397 4.821-18.133l16.64-16.64-200.192-200.149-172.032 172.032c-7.296 7.339-19.2 7.339-26.539 0l-367.829-367.872c-7.339-7.339-7.339-19.2 0-26.581l70.443-70.443zM985.088-6.315h-18.773v567.595c0 10.368-8.405 18.773-18.773 18.773h-105.131c-10.368 0-18.773-8.405-18.773-18.773v-567.595h-43.179v343.552c0 10.368-8.405 18.773-18.773 18.773h-105.131c-10.368 0-18.773-8.405-18.773-18.773v-343.552h-43.179v244.053c0 10.368-8.405 18.773-18.773 18.773h-105.131c-10.368 0-18.773-8.405-18.773-18.773v-244.053h-43.179v343.552c0 10.368-8.405 18.773-18.773 18.773h-105.131c-10.368 0-18.773-8.405-18.773-18.773v-343.552h-43.179v172.075c0 10.368-8.405 18.773-18.773 18.773h-105.131c-10.368 0-18.773-8.405-18.773-18.773v-172.075h-18.773c-10.368 0-18.773-8.405-18.773-18.773s8.405-18.773 18.773-18.773h923.648c10.368 0 18.773 8.405 18.773 18.773s-8.405 18.773-18.773 18.773zM117.76-6.315v153.301h67.584v-153.301h-67.584zM303.616-6.315v324.779h67.584v-324.779h-67.584zM489.472-6.315v225.28h67.584v-225.28h-67.584zM675.328-6.315v324.779h67.584v-324.779h-67.584zM861.184-6.315v548.821h67.584v-548.821h-67.584zM754.219 620.629c-3.456-3.499-5.504-8.32-5.504-13.227 0-4.992 2.048-9.813 5.547-13.312 3.456-3.499 8.32-5.504 13.227-5.504 4.949 0 9.813 2.005 13.312 5.547 3.499 3.413 5.461 8.277 5.461 13.227s-1.963 9.771-5.461 13.269c-3.499 3.499-8.363 5.547-13.312 5.547-4.907 0-9.771-2.048-13.227-5.547z" />
<glyph unicode="&#xe913;" glyph-name="trash" d="M848 832h-176v32c0 52.934-43.066 96-96 96h-128c-52.934 0-96-43.066-96-96v-32h-176c-44.112 0-80-35.888-80-80v-112c0-17.672 14.328-32 32-32h17.488l27.646-580.566c2.442-51.272 44.562-91.434 95.89-91.434h485.952c51.33 0 93.45 40.162 95.89 91.434l27.646 580.566h17.488c17.672 0 32 14.328 32 32v112c0 44.112-35.888 80-80 80zM416 864c0 17.644 14.356 32 32 32h128c17.644 0 32-14.356 32-32v-32h-192zM160 752c0 8.822 7.178 16 16 16h672c8.822 0 16-7.178 16-16v-80c-9.862 0-663.134 0-704 0zM786.938 30.478c-0.814-17.090-14.854-30.478-31.962-30.478h-485.952c-17.11 0-31.15 13.388-31.962 30.478l-27.502 577.522h604.88zM512 64c17.672 0 32 14.328 32 32v416c0 17.672-14.328 32-32 32s-32-14.328-32-32v-416c0-17.672 14.326-32 32-32zM672 64c17.672 0 32 14.328 32 32v416c0 17.672-14.328 32-32 32s-32-14.328-32-32v-416c0-17.672 14.326-32 32-32zM352 64c17.672 0 32 14.328 32 32v416c0 17.672-14.328 32-32 32s-32-14.328-32-32v-416c0-17.672 14.326-32 32-32z" />
<glyph unicode="&#xe914;" glyph-name="trash-solid" d="M807.563 844.258h-109.656v5.742c0 60.656-49.344 110-110 110h-152.25c-60.656 0-110-49.344-110-110v-5.742h-109.656c-33.133 0-60-26.859-60-60v-45.734c0-11.047 8.953-20 20-20h671.563c11.047 0 20 8.953 20 20v45.734c0 33.141-26.859 60-60 60zM385.656 850c0 27.57 22.43 50 50 50h152.25c27.57 0 50-22.43 50-50v-5.742h-252.25zM181.898 658.523l48.477-694.609c1.102-15.719 14.172-27.914 29.93-27.914h502.961c15.758 0 28.828 12.195 29.922 27.914l48.469 694.609zM393.055 38.031c-0.43-0.023-0.867-0.031-1.297-0.031-15.977 0-29.266 12.609-29.945 28.727l-20 470c-0.711 16.555 12.141 30.547 28.695 31.25 16.563 0.68 30.547-12.148 31.25-28.703l20-470c0.703-16.555-12.148-30.539-28.703-31.242zM541.781 68c0-16.57-13.43-30-30-30s-30 13.43-30 30v470c0 16.57 13.43 30 30 30s30-13.43 30-30zM661.758 66.727c-0.688-16.125-13.977-28.727-29.953-28.727-0.43 0-0.867 0.008-1.297 0.023-16.555 0.703-29.406 14.695-28.703 31.25l20 470c0.711 16.555 14.719 29.398 31.25 28.695 16.555-0.703 29.406-14.688 28.703-31.242z" />
<glyph unicode="&#xe915;" glyph-name="edit" d="M879.244 815.244c-31.45 31.45-73.216 48.756-117.728 48.756-44.428 0-86.278-17.306-117.728-48.756l-465.172-465.254c-3.994-3.91-6.822-8.82-8.32-14.228l-73.132-262.58c-3.162-11.316 0.084-23.462 8.404-31.7 6.24-6.156 14.56-9.484 22.964-9.484 2.912 0 5.908 0.416 8.82 1.248l262.58 74.548c11.066 3.162 19.636 11.898 22.548 23.046s-0.332 23.046-8.404 31.2l-165.568 165.984 385.632 385.632 143.436-143.354-295.194-294.444c-12.73-12.73-12.73-33.28 0-46.010 12.564-12.646 33.196-12.73 45.926 0l350.938 349.94c31.45 31.45 48.756 73.216 48.756 117.812s-17.306 86.196-48.756 117.644zM329.044 155.136l-153.67-43.596 43.014 154.586 110.572-110.906zM833.236 625.716l-9.652-9.652-143.436 143.52 9.652 9.652c19.136 19.136 44.596 29.702 71.718 29.702s52.582-10.566 71.802-29.702c19.136-19.136 29.702-44.678 29.702-71.802s-10.566-52.582-29.702-71.718z" />
<glyph unicode="&#xe916;" glyph-name="view" d="M958.545 455.035c-8.235 10.949-204.406 270.385-454.943 270.385s-446.705-259.389-454.943-270.385c-7.808-10.471-7.808-24.754 0-35.226 8.235-10.996 204.406-270.385 454.943-270.385s446.705 259.389 454.943 270.385c7.808 10.471 7.808 24.754 0 35.226zM503.608 208.975c-184.555 0-344.405 172.133-391.724 228.399 47.27 56.363 206.786 228.399 391.724 228.399 184.555 0 344.359-172.133 391.724-228.399-47.27-56.363-206.786-228.399-391.772-228.399zM503.608 610.219c-95.301 0-172.798-77.497-172.798-172.798s77.497-172.798 172.798-172.798 172.798 77.497 172.798 172.798-77.497 172.798-172.798 172.798zM503.608 322.223c-63.501 0-115.199 51.696-115.199 115.199s51.696 115.199 115.199 115.199c63.501 0 115.199-51.696 115.199-115.199s-51.696-115.199-115.199-115.199z" />
<glyph unicode="&#xe917;" glyph-name="angle-right1" horiz-adv-x="384" d="M333.8 431l-235.6-232c-9.4-9.4-24.6-9.4-34 0l-14.2 14.2c-9.4 9.4-9.4 24.6 0 34l204.6 200.8-204.4 200.8c-9.4 9.4-9.4 24.6 0 34l14.2 14.2c9.4 9.4 24.6 9.4 34 0l235.6-232c9.2-9.4 9.2-24.6-0.2-34z" />
<glyph unicode="&#xe918;" glyph-name="download" d="M511.59 253.44c-6.144-6.554-14.848-10.24-24.064-10.24s-18.022 3.789-24.064 10.24l-224.051 238.899c-8.192 8.806-10.24 21.299-5.018 32.051 5.12 10.65 16.589 17.408 29.082 17.408h128v388.403c0 16.486 14.336 29.901 32.051 29.901h128c17.613 0 31.949-13.312 31.949-29.901v-388.198h128c12.595 0 23.962-6.861 29.184-17.51 5.222-10.752 3.174-23.245-5.12-32.051l-223.949-239.002zM149.606 243.2v-184.32h675.84v184.32h122.88v-245.76c0-33.997-27.546-61.44-61.44-61.44h-798.72c-33.997 0-61.44 27.443-61.44 61.44v245.76h122.88z" />
<glyph unicode="&#xe919;" glyph-name="lbs" horiz-adv-x="969" d="M967.735 153.978l-75.906 429.37c-15.848 87.709-91.61 153.372-182.708 153.372-0.091 0-0.183 0-0.274 0h-107.386c16.143 22.73 25.807 51.044 25.807 81.616 0 78.403-63.559 141.962-141.962 141.962s-141.962-63.559-141.962-141.962c0-30.572 9.664-58.887 26.103-82.056l-0.296 0.44h-107.378c-0.078 0-0.169 0-0.261 0-91.098 0-166.859-65.663-182.537-152.241l-0.17-1.131-75.908-429.37c-1.796-9.7-2.824-20.861-2.824-32.262 0-102.568 83.148-185.716 185.716-185.716 0.027 0 0.055 0 0.082 0h598.898c0.024 0 0.052 0 0.081 0 102.565 0 185.71 83.145 185.71 185.71 0 11.403-1.028 22.566-2.996 33.402l0.171-1.134zM485.315 899.546c44.94-0.032 81.358-36.47 81.358-81.414 0-44.964-36.45-81.414-81.414-81.414s-81.414 36.45-81.414 81.414v0c0.067 44.956 36.509 81.379 81.467 81.414h0.003zM880.771 41.2c-23.093-27.434-57.453-44.746-95.855-44.746-0.051 0-0.102 0-0.153 0h-598.896c-0.016 0-0.036 0-0.055 0-69.173 0-125.248 56.075-125.248 125.248 0 7.687 0.692 15.212 2.018 22.517l-0.115-0.765 75.914 429.374c10.688 59.153 61.783 103.438 123.222 103.438 0.063 0 0.125 0 0.188 0h447.074c0.055 0 0.12 0 0.185 0 61.436 0 112.529-44.283 123.1-102.671l0.115-0.763 75.908-429.37c1.226-6.57 1.927-14.129 1.927-21.852 0-30.716-11.088-58.842-29.48-80.594l0.152 0.184zM246.115 454.642c-4.24 4.56-10.273 7.404-16.97 7.404-0.304 0-0.606-0.006-0.907-0.017l0.043 0.001c-0.247 0.010-0.537 0.015-0.828 0.015-6.621 0-12.569-2.884-16.655-7.465l-0.019-0.022q-6.656-7.47-6.658-22.412v-187.432q0-15.936 6.986-23.076t22.928-7.138h117.842q12 0 18.244 5.562c3.846 3.412 6.257 8.367 6.257 13.885 0 0.226-0.004 0.45-0.012 0.674l0.001-0.032c0.003 0.132 0.005 0.288 0.005 0.444 0 5.62-2.439 10.67-6.316 14.151l-0.018 0.016q-6.33 5.8-18.162 5.81h-98.938v177.138q0 15.104-6.824 22.496zM517.743 216.4c9.4 1.159 17.948 3.463 25.961 6.796l-0.651-0.24c11.707 5.201 21.239 13.515 27.789 23.899l0.151 0.257c6.5 10.169 10.36 22.569 10.36 35.871 0 0.317-0.002 0.633-0.007 0.948l0.001-0.048q0 44.16-47.498 59.434 36.156 16.936 36.158 53.458c0.001 0.091 0.001 0.199 0.001 0.308 0 7.123-1.265 13.951-3.584 20.271l0.131-0.408c-2.457 6.697-5.853 12.477-10.096 17.52l0.072-0.088c-4.263 5.123-9.257 9.452-14.861 12.883l-0.261 0.149c-6.515 3.994-14.15 6.902-22.312 8.25l-0.368 0.050c-8.386 1.38-18.051 2.169-27.9 2.169-0.708 0-1.415-0.004-2.122-0.012l0.108 0.001h-78.068q-15.618 0-22.6-7.054t-6.986-23.16v-182.95q0-15.774 6.82-23t22.764-7.222h73.632c0.615-0.005 1.342-0.008 2.069-0.008 11.032 0 21.9 0.7 32.562 2.058l-1.266-0.132zM519.057 314.266q12.82-8.304 12.82-26.73 0-36.024-49.472-36.024h-52.428v71.064h50.786q25.474 0 38.294-8.3zM469.587 420.848q26.626 0 39.6-6.060t12.984-24.488c0.002-0.119 0.003-0.259 0.003-0.399 0-5.601-1.527-10.846-4.187-15.341l0.077 0.14c-3.191-6.198-8.53-10.915-15.011-13.223l-0.189-0.059q-9.948-3.486-28.188-3.486h-44.698v62.92h39.61zM773.259 318.664c-4.371 8.504-10.481 15.549-17.905 20.882l-0.173 0.118c-8.086 5.678-17.386 10.457-27.32 13.877l-0.786 0.235c-9.495 3.478-21.83 7.129-34.419 10.126l-2.479 0.498q-16.27 4.148-23.338 6.308c-5.359 1.673-9.984 3.702-14.33 6.166l0.36-0.188c-4.318 2.303-7.933 5.37-10.792 9.054l-0.056 0.076c-2.468 3.352-3.95 7.562-3.95 12.119 0 0.175 0.002 0.35 0.007 0.525l-0.001-0.026q0 11.784 11.586 20.17t30.488 8.384q20.38 0 29.584-7.72c6.619-5.868 11.948-13.029 15.618-21.104l0.16-0.394c2.6-5.309 5.756-9.875 9.486-13.901l-0.034 0.037q4.354-4.234 12.736-4.232c0.096-0.002 0.209-0.003 0.322-0.003 6.035 0 11.432 2.732 15.021 7.028l0.025 0.031c3.822 4.161 6.164 9.733 6.164 15.853 0 0 0 0.001 0 0.001v0c-0.121 7.232-1.931 14.014-5.050 20.005l0.118-0.249c-3.983 7.626-9.221 14.054-15.509 19.257l-0.103 0.083c-7.594 6.345-16.536 11.383-26.302 14.612l-0.572 0.164c-10.742 3.543-23.107 5.587-35.95 5.587-0.853 0-1.704-0.009-2.553-0.027l0.127 0.002q-27.778 0-48.32-8.384t-31.4-24c-6.793-9.699-10.855-21.745-10.855-34.739 0-0.336 0.003-0.671 0.008-1.006l-0.001 0.050q0-21.084 10.272-35.278c7.166-9.64 16.513-17.268 27.337-22.232l0.439-0.18c12.36-5.706 26.873-10.645 41.96-14.071l1.512-0.289q19.4-4.482 30.982-8.466c7.412-2.425 13.75-6.388 18.9-11.538v0c4.545-4.836 7.337-11.365 7.337-18.546 0-0.397-0.009-0.791-0.025-1.184l0.002 0.056q0-15.276-13.56-25.484t-35.254-10.2q-15.778 0-25.474 5.062c-6.107 3.070-11.16 7.427-14.957 12.743l-0.083 0.123c-3.745 5.587-7.089 11.988-9.712 18.749l-0.23 0.675c-2.013 5.772-5.131 10.711-9.128 14.782l0.006-0.006c-3.291 3.088-7.732 4.985-12.616 4.985-0.158 0-0.316-0.002-0.473-0.006h0.023c-0.194 0.006-0.421 0.010-0.65 0.010-5.909 0-11.244-2.456-15.040-6.403l-0.006-0.007c-3.812-3.852-6.167-9.152-6.167-15.002 0-0.124 0.001-0.248 0.003-0.372v0.019q0-15.438 10.272-31.8c6.776-10.781 15.752-19.578 26.352-25.95l0.356-0.198q23.176-13.614 58.84-13.612 29.744 0 51.442 9.96t32.954 27.56c7.066 10.95 11.265 24.326 11.265 38.683 0 0.349-0.002 0.697-0.007 1.045l0.001-0.053q0.008 18.458-6.484 31.158z" />
<glyph unicode="&#xe91a;" glyph-name="calendar-clock" d="M812 540c0-22.091-17.909-40-40-40s-40 17.909-40 40c0 22.091 17.909 40 40 40s40-17.909 40-40zM864 880h-52v40c0 22.092-17.908 40-40 40s-40-17.908-40-40v-40h-182v40c0 22.092-17.908 40-40 40s-40-17.908-40-40v-40h-180v40c0 22.092-17.908 40-40 40s-40-17.908-40-40v-40h-50c-88.224 0-160-71.776-160-160v-624c0-88.224 71.776-160 160-160h306c22.092 0 40 17.908 40 40s-17.908 40-40 40h-306c-44.112 0-80 35.888-80 80v624c0 44.112 35.888 80 80 80h50v-40c0-22.092 17.908-40 40-40s40 17.908 40 40v40h180v-40c0-22.092 17.908-40 40-40s40 17.908 40 40v40h182v-40c0-22.092 17.908-40 40-40s40 17.908 40 40v40h52c44.112 0 80-35.888 80-80v-228c0-22.092 17.908-40 40-40s40 17.908 40 40v228c0 88.224-71.776 160-160 160zM782 420c-133.44 0-242-108.56-242-242s108.56-242 242-242 242 108.56 242 242-108.56 242-242 242zM782 16c-89.326 0-162 72.672-162 162s72.674 162 162 162c89.326 0 162-72.672 162-162s-72.674-162-162-162zM840 218h-18v42c0 22.092-17.908 40-40 40s-40-17.908-40-40v-82c0-22.092 17.908-40 40-40h58c22.092 0 40 17.908 40 40s-17.908 40-40 40zM638 540c0-22.091-17.909-40-40-40s-40 17.909-40 40c0 22.091 17.909 40 40 40s40-17.909 40-40zM464 366c0-22.091-17.909-40-40-40s-40 17.909-40 40c0 22.091 17.909 40 40 40s40-17.909 40-40zM290 540c0-22.091-17.909-40-40-40s-40 17.909-40 40c0 22.091 17.909 40 40 40s40-17.909 40-40zM290 366c0-22.091-17.909-40-40-40s-40 17.909-40 40c0 22.091 17.909 40 40 40s40-17.909 40-40zM290 192c0-22.091-17.909-40-40-40s-40 17.909-40 40c0 22.091 17.909 40 40 40s40-17.909 40-40zM464 192c0-22.091-17.909-40-40-40s-40 17.909-40 40c0 22.091 17.909 40 40 40s40-17.909 40-40zM464 540c0-22.091-17.909-40-40-40s-40 17.909-40 40c0 22.091 17.909 40 40 40s40-17.909 40-40z" />
<glyph unicode="&#xe91b;" horiz-adv-x="1050" d="M332.511 144.161l-332.511 321.405 197.002 190.517 135.509-131.019 449.851 434.937 197.002-190.464z" />
<glyph unicode="&#xe91c;" horiz-adv-x="1050" d="M402.406-46.067l-332.485 321.457 197.002 190.464 135.483-131.019 449.877 434.937 196.976-190.49z" />
<glyph unicode="&#xe91d;" glyph-name="farm-fill" d="M518.827 960l-6.827-8.192-6.827 8.192-311.735-214.552-8.923-10.971-113.859-281.6h-70.656v-48.177h107.52l6.339 15.799 42.472 105.033v-541.355h-29.647v405.114h-52.955v-405.114h-35.889v-48.177h948.322v48.177h-35.889v405.114h-52.955v-405.114h-29.647v541.355l48.811-120.832h107.52v48.177h-70.705l-113.81 281.6-8.923 10.923-311.735 214.601zM462.36 870.229l41.35 28.428v-223.476h-41.35v195.048zM520.29 898.658l41.35-28.428v-195.048h-41.35v223.476zM578.17 858.819l41.35-28.477v-155.16h-41.35v183.637zM404.48 830.391l41.35 28.428v-183.637h-41.35v155.209zM346.6 790.504l41.35 28.477v-143.848h-5.218v-176.469h5.218v-91.234h-41.35v383.122zM636.050 818.981l41.35-28.477v-383.122h-41.35v91.185h5.218v176.616h-5.218v143.799zM288.67 750.714l41.35 28.428v-794.965h-41.35v766.537zM693.979 779.142l41.35-28.477v-766.488h-41.35v794.965zM230.79 709.608l0.683 1.658 40.667 28.038v-755.127h-41.35v725.431zM751.86 739.304l40.667-28.038 0.683-1.658v-725.431h-41.35v755.127zM172.91 566.443l41.35 102.254v-684.52h-41.35v582.315zM809.74 668.696l41.35-102.254v-582.217h-41.35v684.471zM587.142 651.093l-75.142-49.396-75.142 49.396h150.284zM534.479 586.874l80.311 52.76v-105.472l-80.262 52.712zM409.21 639.634l80.262-52.76-80.262-52.712v105.472zM512 572.099l75.142-49.396h-150.284l75.142 49.396zM578.17 407.381v91.185h41.35v-91.185h-41.35zM520.29 407.381v91.185h41.35v-91.185h-41.35zM462.36 407.381v91.185h41.35v-91.185h-41.35zM404.48 407.381v91.185h41.35v-91.185h-41.35zM653.166 383.293l-141.166-183.735-141.166 183.735h282.331zM528.091 178.639l137.167 178.566v-357.083l-137.167 178.517zM358.741 357.205l137.167-178.566-137.167-178.517v357.083zM512 157.769l133.364-173.592h-266.728l133.364 173.592z" />
<glyph unicode="&#xe91e;" glyph-name="pencil-round" d="M314.709 275.724l235.374 58.807 447.439 447.39-176.664 176.616-447.342-447.439-58.807-235.374zM820.858 870.278l88.405-88.357-44.13-44.081-88.259 88.259 43.983 44.178zM732.696 781.922l88.162-88.162-286.866-286.915-88.259 88.259 286.964 286.818zM418.621 434.103l54.467-54.467-72.655-18.139 18.188 72.606zM499.419 23.576c-241.274 0.439-436.517 196.413-436.078 437.687 0.488 241.323 196.413 436.565 437.736 436.078 38.814-0.049 77.434-5.315 114.883-15.604l16.579 60.123c-265.704 73.435-540.721-82.505-614.205-348.306-73.435-265.801 82.505-540.818 348.306-614.302 265.801-73.435 540.818 82.505 614.254 348.306l0.829 2.926-60.27 16.189c-51.639-190.562-224.5-322.95-421.986-323.096zM936.326 460.483c0-19.017-1.219-37.937-3.608-56.71l61.928-7.997c2.731 21.455 4.096 43.057 4.096 64.707v1.463l-62.415-1.463zM932.328 520.021l61.879 8.387c-3.023 21.992-7.461 43.788-13.41 65.195l-60.123-16.579c5.169-18.725 9.070-37.79 11.654-57.051z" />
<glyph unicode="&#xe91f;" d="M1022.362 448.819c0-282.317-228.864-511.181-511.181-511.181s-511.181 228.864-511.181 511.181 228.864 511.181 511.181 511.181 511.181-228.864 511.181-511.181z" />
<glyph unicode="&#xe920;" d="M766.771 448.819c0-141.141-114.449-255.59-255.59-255.59s-255.59 114.449-255.59 255.59 114.449 255.59 255.59 255.59 255.59-114.449 255.59-255.59z" />
<glyph unicode="&#xe921;" glyph-name="heart-beat" horiz-adv-x="1161" d="M1160.465 634.368c-5.257 257.843-327.066 447.829-580.198 231.424-252.928 216.337-574.942 26.624-580.198-231.424-1.911-94.481 39.049-185.481 118.443-263.1l437.794-425.574c13.244-12.971 34.679-12.971 47.923 0l437.794 425.574c79.394 77.619 120.354 168.619 118.443 263.1zM580.267 16.145l-373.487 363.179h119.467c11.947 0 23.074 6.076 29.218 16.111l26.078 42.53 97.485-149.709c14.336-21.982 47.923-20.002 59.392 3.618l134.485 277.504 95.095-172.646c5.939-10.718 17.476-17.476 29.969-17.476h155.785l-373.487-363.179zM1019.563 445.747h-201.25l-117.419 212.992c-13.107 23.893-48.674 23.211-60.689-1.502l-136.875-282.487-93.935 144.247c-13.653 21.026-44.988 20.275-57.89-0.683l-44.51-72.567h-166.025c-49.152 57.754-74.206 121.924-72.909 187.324 4.301 207.258 274.637 372.463 488.107 163.772 13.312-12.971 34.816-12.971 48.128 0 272.725 266.445 647.578-78.029 415.266-351.095z" />
<glyph unicode="&#xe922;" glyph-name="pie-chart" horiz-adv-x="829" d="M725.333-64h-621.714c-57.1 0-103.619 47.884-103.619 106.691v810.618c0 58.807 46.519 106.691 103.619 106.691h621.714c57.1 0 103.619-47.884 103.619-106.691v-810.667c0-58.709-46.519-106.642-103.619-106.642zM103.619 917.333c-34.28 0-62.171-28.721-62.171-64.024v-810.667c0-35.255 27.892-63.976 62.171-63.976h621.714c34.28 0 62.171 28.721 62.171 64.024v810.618c0 35.255-27.892 63.976-62.171 63.976h-621.714zM683.886 448h-82.895c-11.459 0-20.724 9.557-20.724 21.358 0 11.752 9.265 21.309 20.724 21.309h82.895c11.459 0 20.724-9.557 20.724-21.358 0-11.752-9.265-21.309-20.724-21.309zM683.886 576h-82.895c-11.459 0-20.724 9.557-20.724 21.358 0 11.752 9.265 21.309 20.724 21.309h82.895c11.459 0 20.724-9.557 20.724-21.358 0-11.752-9.265-21.309-20.724-21.309zM683.886 320h-82.895c-11.459 0-20.724 9.557-20.724 21.358 0 11.752 9.265 21.309 20.724 21.309h82.895c11.459 0 20.724-9.557 20.724-21.358 0-11.752-9.265-21.309-20.724-21.309zM683.886 192h-82.895c-11.459 0-20.724 9.557-20.724 21.358 0 11.752 9.265 21.309 20.724 21.309h82.895c11.459 0 20.724-9.557 20.724-21.358 0-11.752-9.265-21.309-20.724-21.309zM683.886 64h-538.819c-11.459 0-20.724 9.557-20.724 21.358 0 11.752 9.265 21.309 20.724 21.309h538.819c11.459 0 20.724-9.557 20.724-21.358 0-11.752-9.265-21.309-20.724-21.309zM331.581 192c-114.249 0-207.238 95.72-207.238 213.333s92.989 213.333 207.238 213.333 207.238-95.72 207.238-213.333-92.989-213.333-207.238-213.333zM331.581 576c-91.429 0-165.79-76.556-165.79-170.667s74.362-170.667 165.79-170.667 165.79 76.556 165.79 170.667-74.362 170.667-165.79 170.667zM199.68 248.222c-5.266 0-10.581 2.097-14.629 6.242-8.094 8.29-8.094 21.845 0 30.184l125.806 129.512v183.198c0 11.752 9.265 21.309 20.724 21.309s20.724-9.557 20.724-21.358v-191.976c0-5.656-2.194-11.069-6.046-15.116l-131.901-135.753c-4.047-4.145-9.362-6.242-14.629-6.242z" />
<glyph unicode="&#xe923;" glyph-name="updated" d="M118.618 447.024c0-131.555 65.359-247.843 165.375-318.164 17.625-12.398 18.562-38.141 1.633-51.469l-0.477-0.375c-11.055-8.703-26.555-9.281-38.070-1.195-116.758 82-193.078 217.695-193.078 371.203 0 248.992 206.101 451.125 454.593 453.25v-64.633c-212.828-2.109-389.976-175.297-389.976-388.617zM520.461 958.070l118.75-81.226c6.359-4.352 6.359-13.734 0-18.086l-118.75-81.226c-7.273-4.977-17.141 0.234-17.141 9.039v162.453c0 8.812 9.867 14.016 17.141 9.047zM904.765 448.977c0 131.555-65.367 247.843-165.383 318.164-17.625 12.398-18.562 38.141-1.633 51.469l0.477 0.375c11.055 8.703 26.555 9.281 38.070 1.195 116.766-82 193.078-217.695 193.078-371.203 0-248.992-205.75-451.125-454.25-453.25v64.633c212.828 2.109 389.64 175.289 389.64 388.617zM502.922-62.069l-118.75 81.226c-6.359 4.352-6.359 13.734 0 18.086l118.75 81.226c7.266 4.977 17.141-0.234 17.141-9.039v-162.453c0-8.812-9.875-14.023-17.141-9.047zM713.258 498.36l-243.554-201.984c-11.555-9.57-26.18-14.766-41.055-14.766-2.477 0-4.953 0.141-7.453 0.43-17.352 2.039-33.32 11.242-43.797 25.234l-75.641 100.828c-17.078 22.773-12.461 55.102 10.32 72.211 22.797 17.078 55.125 12.461 72.211-10.32l51.062-68.086 0.414 0.336 211.656 175.531c21.93 18.172 54.445 15.141 72.625-6.789s15.141-54.445-6.789-72.625zM713.258 498.36l-194.515-161.312c-31.812 15.883-59.789 37.836-82.976 65.195l211.656 175.531c21.93 18.172 54.445 15.141 72.625-6.789s15.141-54.445-6.789-72.625z" />
<glyph unicode="&#xe924;" glyph-name="cards" d="M85.333 960h853.333c47.128 0 85.333-38.205 85.333-85.333v0-256c0-47.128-38.205-85.333-85.333-85.333v0h-853.333c-47.128 0-85.333 38.205-85.333 85.333v0 256c0 47.128 38.205 85.333 85.333 85.333v0zM85.333 362.667h853.333c47.128 0 85.333-38.205 85.333-85.333v0-256c0-47.128-38.205-85.333-85.333-85.333v0h-853.333c-47.128 0-85.333 38.205-85.333 85.333v0 256c0 47.128 38.205 85.333 85.333 85.333v0z" />
<glyph unicode="&#xe925;" glyph-name="table-grid" horiz-adv-x="1536" d="M170.66 959.979v0c-94.253 0-170.66-76.407-170.66-170.66v-682.638c0-94.253 76.407-170.66 170.66-170.66h1194.617c94.253 0 170.66 76.407 170.66 170.66v682.638c0 94.253-76.407 170.66-170.66 170.66h-1194.617zM170.66 789.319h511.979v-255.989h-511.979v255.989zM853.298 789.319h511.979v-255.989h-511.979v255.989zM170.66 362.67h511.979v-255.989h-511.979v255.989zM853.298 362.67h511.979v-255.989h-511.979v255.989z" />
<glyph unicode="&#xe926;" glyph-name="diskette" d="M332 296h360c16.568 0 30 13.432 30 30s-13.432 30-30 30h-360c-16.568 0-30-13.432-30-30s13.432-30 30-30zM332 176h360c16.568 0 30 13.432 30 30s-13.432 30-30 30h-360c-16.568 0-30-13.432-30-30s13.432-30 30-30zM1015.212 791.212l-160 160c-5.626 5.628-13.256 8.788-21.212 8.788h-804c-16.568 0-30-13.432-30-30v-964c0-16.568 13.432-30 30-30 13.824 0 954.99 0 964 0 16.568 0 30 13.432 30 30v804c0 7.958-3.162 15.588-8.788 21.212zM242 900h420v-200h-420v200zM782-4h-540v420h540v-420zM964-4h-122v450c0 16.568-13.432 30-30 30h-600c-16.568 0-30-13.432-30-30v-450h-122v904h122v-230c0-16.568 13.432-30 30-30h480c16.568 0 30 13.432 30 30v230h99.574l142.426-142.426v-761.574zM332 56h360c16.568 0 30 13.432 30 30s-13.432 30-30 30h-360c-16.568 0-30-13.432-30-30s13.432-30 30-30z" />
<glyph unicode="&#xe927;" glyph-name="cloud-computing" d="M853.177 583.593c-47.327 188.535-238.528 303.007-427.063 255.68-147.336-36.986-254.318-164.326-265.341-315.831-104.615-17.252-175.437-116.043-158.185-220.658 15.336-93.004 95.924-161.114 190.181-160.74h159.983v63.993h-159.983c-70.684 0-127.986 57.302-127.986 127.986s57.302 127.986 127.986 127.986c17.672 0 31.997 14.324 31.997 31.997-0.16 159.041 128.64 288.098 287.681 288.256 137.673 0.138 256.186-97.191 282.817-232.263 2.63-13.487 13.575-23.789 27.197-25.597 87.474-12.457 148.286-93.466 135.831-180.938-11.185-78.547-78.249-137.031-157.589-137.427h-127.986v-63.993h127.986c123.698 0.374 223.672 100.955 223.296 224.653-0.312 102.969-70.792 192.461-170.821 216.896zM490.016 452.727l-127.986-127.986 45.115-45.115 73.592 73.272v-306.846h63.993v306.846l73.272-73.272 45.115 45.115-127.986 127.986c-12.481 12.407-32.634 12.407-45.115 0z" />
<glyph unicode="&#xe93a;" glyph-name="arrow-right1" horiz-adv-x="896" d="M432.928 887.070l-14.142-14.14c-9.372-9.372-9.372-24.568 0-33.942l356.988-356.988h-751.774c-13.254 0-24-10.746-24-24v-20c0-13.254 10.746-24 24-24h751.774l-356.988-356.988c-9.372-9.372-9.372-24.568 0-33.942l14.142-14.14c9.372-9.372 24.568-9.372 33.94 0l422.102 422.1c9.372 9.372 9.372 24.568 0 33.942l-422.102 422.098c-9.372 9.374-24.568 9.374-33.94 0z" />
<glyph unicode="&#xe9e6;" glyph-name="check1" horiz-adv-x="896" d="M827.010 776.098l-560.030-560.030-197.99 197.99c-9.372 9.372-24.568 9.372-33.942 0l-22.626-22.626c-9.372-9.372-9.372-24.568 0-33.942l237.588-237.588c9.372-9.372 24.568-9.372 33.942 0l599.626 599.626c9.372 9.372 9.372 24.568 0 33.942l-22.628 22.628c-9.372 9.372-24.568 9.372-33.94 0z" />
<glyph unicode="&#xe9e7;" glyph-name="check-circle1" d="M512 944c-273.934 0-496-222.066-496-496s222.066-496 496-496 496 222.066 496 496-222.066 496-496 496zM512 16c-237.328 0-432 192.11-432 432 0 237.326 192.11 432 432 432 237.328 0 432-192.11 432-432 0-237.326-192.11-432-432-432zM795.26 565.922l-360.96-358.064c-9.41-9.334-24.606-9.274-33.94 0.136l-171.756 173.144c-9.334 9.41-9.274 24.606 0.136 33.94l17.040 16.902c9.41 9.334 24.606 9.274 33.94-0.136l137.952-139.066 326.882 324.26c9.41 9.334 24.606 9.274 33.94-0.136l16.902-17.040c9.336-9.41 9.274-24.606-0.136-33.94z" />
<glyph unicode="&#xe9e9;" glyph-name="check-square1" horiz-adv-x="896" d="M800 896h-704c-53.020 0-96-42.98-96-96v-704c0-53.020 42.98-96 96-96h704c53.020 0 96 42.98 96 96v704c0 53.020-42.98 96-96 96zM800 832c17.646 0 32-14.356 32-32v-704c0-17.644-14.354-32-32-32h-704c-17.644 0-32 14.356-32 32v704c0 17.644 14.356 32 32 32h704zM731.398 635.414l-16.902 17.040c-9.334 9.41-24.53 9.472-33.94 0.136l-326.882-324.26-137.952 139.066c-9.334 9.41-24.53 9.472-33.94 0.136l-17.040-16.902c-9.41-9.334-9.472-24.53-0.136-33.94l171.756-173.144c9.334-9.41 24.53-9.472 33.94-0.136l360.96 358.064c9.408 9.334 9.47 24.53 0.136 33.94z" />
<glyph unicode="&#xeab6;" glyph-name="exclamation-circle1" d="M512 880c237.242 0 432-192.15 432-432 0-238.582-193.22-432-432-432-238.488 0-432 193.124-432 432 0 238.406 193.204 432 432 432zM512 944c-273.914 0-496-222.166-496-496 0-273.994 222.086-496 496-496s496 222.006 496 496c0 273.834-222.086 496-496 496zM489.020 704h45.958c13.646 0 24.548-11.364 23.98-25l-14-336c-0.536-12.856-11.112-23-23.98-23h-17.958c-12.866 0-23.444 10.146-23.98 23l-14 336c-0.566 13.636 10.334 25 23.98 25zM512 280c-30.928 0-56-25.072-56-56s25.072-56 56-56 56 25.072 56 56-25.072 56-56 56z" />
<glyph unicode="&#xeab8;" glyph-name="exclamation-triangle1" horiz-adv-x="1152" d="M1139.034 79.974c36.916-63.988-9.422-143.974-83.154-143.974h-959.772c-73.874 0-119.998 80.108-83.154 143.974l479.892 832.056c36.934 64.018 129.44 63.904 166.308 0l479.88-832.056zM1083.718 47.992l-480 832c-12.32 21.356-43.166 21.268-55.436 0l-480-832c-12.316-21.348 3.18-47.992 27.718-47.992h960c24.646 0 39.98 26.738 27.718 47.992zM576 216c-30.928 0-56-25.072-56-56s25.072-56 56-56 56 25.072 56 56-25.072 56-56 56zM553.020 640h45.958c13.646 0 24.548-11.364 23.98-25l-14-336c-0.536-12.856-11.112-23-23.98-23h-17.958c-12.866 0-23.444 10.146-23.98 23l-14 336c-0.566 13.636 10.334 25 23.98 25zM576 216c-30.928 0-56-25.072-56-56s25.072-56 56-56 56 25.072 56 56-25.072 56-56 56z" />
<glyph unicode="&#xeb8e;" glyph-name="info-circle1" d="M512 880c237.242 0 432-192.15 432-432 0-238.582-193.22-432-432-432-238.488 0-432 193.124-432 432 0 238.406 193.204 432 432 432zM512 944c-273.914 0-496-222.166-496-496 0-273.994 222.086-496 496-496s496 222.006 496 496c0 273.834-222.086 496-496 496zM440 256h24v240h-24c-13.254 0-24 10.746-24 24v16c0 13.254 10.746 24 24 24h96c13.254 0 24-10.746 24-24v-280h24c13.254 0 24-10.746 24-24v-16c0-13.254-10.746-24-24-24h-144c-13.254 0-24 10.746-24 24v16c0 13.254 10.746 24 24 24zM512 736c-35.346 0-64-28.654-64-64s28.654-64 64-64 64 28.654 64 64-28.654 64-64 64z" />
<glyph unicode="&#xebd5;" glyph-name="long-arrow-right1" horiz-adv-x="896" d="M622.060 696.97l-14.142-14.14c-9.372-9.372-9.372-24.568 0-33.942l167.856-166.888h-751.774c-13.254 0-24-10.746-24-24v-20c0-13.254 10.746-24 24-24h751.774l-167.856-166.888c-9.372-9.372-9.372-24.568 0-33.942l14.142-14.14c9.372-9.372 24.568-9.372 33.94 0l232.97 232c9.372 9.372 9.372 24.568 0 33.942l-232.97 231.998c-9.372 9.374-24.568 9.374-33.94 0z" />
<glyph unicode="&#xec07;" glyph-name="minus1" horiz-adv-x="768" d="M752 496h-736c-8.84 0-16-7.16-16-16v-64c0-8.84 7.16-16 16-16h736c8.84 0 16 7.16 16 16v64c0 8.84-7.16 16-16 16z" />
<glyph unicode="&#xec08;" glyph-name="minus-circle1" d="M280 412c-13.2 0-24 10.8-24 24v24c0 13.2 10.8 24 24 24h464c13.2 0 24-10.8 24-24v-24c0-13.2-10.8-24-24-24h-464zM1008 448c0-274-222-496-496-496s-496 222-496 496 222 496 496 496 496-222 496-496zM944 448c0 239.8-194.6 432-432 432-239.8 0-432-194.6-432-432 0-239.8 194.6-432 432-432 239.8 0 432 194.6 432 432z" />
<glyph unicode="&#xec68;" glyph-name="plus1" horiz-adv-x="768" d="M752 496h-320v320c0 8.84-7.16 16-16 16h-64c-8.84 0-16-7.16-16-16v-320h-320c-8.84 0-16-7.16-16-16v-64c0-8.84 7.16-16 16-16h320v-320c0-8.84 7.16-16 16-16h64c8.84 0 16 7.16 16 16v320h320c8.84 0 16 7.16 16 16v64c0 8.84-7.16 16-16 16z" />
<glyph unicode="&#xec69;" glyph-name="plus-circle1" d="M768 460v-24c0-13.2-10.8-24-24-24h-196v-196c0-13.2-10.8-24-24-24h-24c-13.2 0-24 10.8-24 24v196h-196c-13.2 0-24 10.8-24 24v24c0 13.2 10.8 24 24 24h196v196c0 13.2 10.8 24 24 24h24c13.2 0 24-10.8 24-24v-196h196c13.2 0 24-10.8 24-24zM1008 448c0-274-222-496-496-496s-496 222-496 496 222 496 496 496 496-222 496-496zM944 448c0 239.8-194.6 432-432 432-239.8 0-432-194.6-432-432 0-239.8 194.6-432 432-432 239.8 0 432 194.6 432 432z" />
<glyph unicode="&#xed29;" glyph-name="stop1" horiz-adv-x="896" d="M800 896h-704c-53 0-96-43-96-96v-704c0-53 43-96 96-96h704c53 0 96 43 96 96v704c0 53-43 96-96 96zM832 96c0-17.6-14.4-32-32-32h-704c-17.6 0-32 14.4-32 32v704c0 17.6 14.4 32 32 32h704c17.6 0 32-14.4 32-32v-704z" />
<glyph unicode="&#xed7a;" glyph-name="times1" horiz-adv-x="640" d="M387.88 448l247.42 247.42c6.24 6.24 6.24 16.38 0 22.62l-45.26 45.26c-6.24 6.24-16.38 6.24-22.62 0l-247.42-247.42-247.42 247.44c-6.24 6.24-16.38 6.24-22.62 0l-45.28-45.26c-6.24-6.24-6.24-16.38 0-22.62l247.44-247.44-247.44-247.42c-6.24-6.24-6.24-16.38 0-22.62l45.26-45.26c6.24-6.24 16.38-6.24 22.62 0l247.44 247.42 247.42-247.42c6.24-6.24 16.38-6.24 22.62 0l45.26 45.26c6.24 6.24 6.24 16.38 0 22.62l-247.42 247.42z" />
<glyph unicode="&#xee66;" glyph-name="times-circle1" d="M512 944c-274 0-496-222-496-496s222-496 496-496 496 222 496 496-222 496-496 496zM512 16c-237.4 0-432 192.2-432 432 0 237.4 192.2 432 432 432 237.4 0 432-192.2 432-432 0-237.4-192.2-432-432-432zM701.6 586.6l-138.6-138.6 138.6-138.6c9.4-9.4 9.4-24.6 0-34l-17-17c-9.4-9.4-24.6-9.4-34 0l-138.6 138.6-138.6-138.6c-9.4-9.4-24.6-9.4-34 0l-17 17c-9.4 9.4-9.4 24.6 0 34l138.6 138.6-138.6 138.6c-9.4 9.4-9.4 24.6 0 34l17 17c9.4 9.4 24.6 9.4 34 0l138.6-138.6 138.6 138.6c9.4 9.4 24.6 9.4 34 0l17-17c9.2-9.4 9.2-24.6 0-34z" />
<glyph unicode="&#xef6a;" glyph-name="check-square11" horiz-adv-x="896" d="M800 896h-704c-53.020 0-96-42.98-96-96v-704c0-53.020 42.98-96 96-96h704c53.020 0 96 42.98 96 96v704c0 53.020-42.98 96-96 96zM800 96h-704v704h704v-704zM728.272 579.448l-345.178-342.408c-9.41-9.334-24.606-9.274-33.94 0.136l-181.562 183.032c-9.334 9.41-9.274 24.606 0.138 33.942l45.438 45.072c9.41 9.334 24.606 9.274 33.94-0.138l119.584-120.554 282.704 280.432c9.41 9.334 24.606 9.274 33.94-0.136l45.072-45.436c9.334-9.412 9.274-24.608-0.136-33.942z" />
<glyph unicode="&#xf2d1;" glyph-name="square11" horiz-adv-x="896" d="M800 896h-704c-53 0-96-43-96-96v-704c0-53 43-96 96-96h704c53 0 96 43 96 96v704c0 53-43 96-96 96zM788 96h-680c-6.6 0-12 5.4-12 12v680c0 6.6 5.4 12 12 12h680c6.6 0 12-5.4 12-12v-680c0-6.6-5.4-12-12-12z" />
<glyph unicode="&#xf4db;" glyph-name="check-square" horiz-adv-x="896" d="M800 0h-704c-53.020 0-96 42.98-96 96v704c0 53.020 42.98 96 96 96h704c53.020 0 96-42.98 96-96v-704c0-53.020-42.98-96-96-96zM390.628 196.118l368 368c12.496 12.496 12.496 32.758 0 45.254l-45.254 45.254c-12.496 12.496-32.758 12.498-45.256 0l-300.118-300.116-140.118 140.118c-12.496 12.496-32.758 12.496-45.256 0l-45.254-45.254c-12.496-12.496-12.496-32.758 0-45.254l208-208c12.498-12.5 32.758-12.5 45.256-0.002z" />
<glyph unicode="&#xf4fe;" glyph-name="circle" d="M512 944c-274 0-496-222-496-496s222-496 496-496 496 222 496 496-222 496-496 496z" />
<glyph unicode="&#xf534;" glyph-name="comment-alt-lines" d="M896 960h-768c-70.6 0-128-57.4-128-128v-576c0-70.6 57.4-128 128-128h192v-168c0-19.6 22.4-31 38.2-19.4l249.8 187.4h288c70.6 0 128 57.4 128 128v576c0 70.6-57.4 128-128 128zM576 432c0-8.8-7.2-16-16-16h-288c-8.8 0-16 7.2-16 16v32c0 8.8 7.2 16 16 16h288c8.8 0 16-7.2 16-16v-32zM768 624c0-8.8-7.2-16-16-16h-480c-8.8 0-16 7.2-16 16v32c0 8.8 7.2 16 16 16h480c8.8 0 16-7.2 16-16v-32z" />
<glyph unicode="&#xf591;" glyph-name="dot-circle" d="M512 944c-273.934 0-496-222.066-496-496s222.066-496 496-496 496 222.066 496 496-222.066 496-496 496zM672 448c0-88.224-71.776-160-160-160s-160 71.776-160 160 71.776 160 160 160 160-71.776 160-160z" />
<glyph unicode="&#xf789;" glyph-name="plus-circle" d="M512 944c-274 0-496-222-496-496s222-496 496-496 496 222 496 496-222 496-496 496zM800 392c0-13.2-10.8-24-24-24h-184v-184c0-13.2-10.8-24-24-24h-112c-13.2 0-24 10.8-24 24v184h-184c-13.2 0-24 10.8-24 24v112c0 13.2 10.8 24 24 24h184v184c0 13.2 10.8 24 24 24h112c13.2 0 24-10.8 24-24v-184h184c13.2 0 24-10.8 24-24v-112z" />
<glyph unicode="&#xf834;" glyph-name="sort-down" horiz-adv-x="640" d="M82 384h476c42.8 0 64.2-51.8 34-82l-238-238c-18.8-18.8-49.2-18.8-67.8 0l-238.2 238c-30.2 30.2-8.8 82 34 82z" />
<glyph unicode="&#xf842;" glyph-name="square" horiz-adv-x="896" d="M800 896h-704c-53 0-96-43-96-96v-704c0-53 43-96 96-96h704c53 0 96 43 96 96v704c0 53-43 96-96 96z" />
<glyph unicode="&#xf8ae;" glyph-name="times-circle" d="M512 944c-274 0-496-222-496-496s222-496 496-496 496 222 496 496-222 496-496 496zM755.2 317.8c9.4-9.4 9.4-24.6 0-34l-79.2-79c-9.4-9.4-24.6-9.4-34 0l-130 131.2-130.2-131.2c-9.4-9.4-24.6-9.4-34 0l-79 79.2c-9.4 9.4-9.4 24.6 0 34l131.2 130-131.2 130.2c-9.4 9.4-9.4 24.6 0 34l79.2 79.2c9.4 9.4 24.6 9.4 34 0l130-131.4 130.2 131.2c9.4 9.4 24.6 9.4 34 0l79.2-79.2c9.4-9.4 9.4-24.6 0-34l-131.4-130 131.2-130.2z" />
</font>
</defs>
</svg>
